<?xml version="1.0" encoding="UTF-8" standalone="no"?>
<?xml-stylesheet href="graphviz.css" type="text/css"?>
<!DOCTYPE svg PUBLIC "-//W3C//DTD SVG 1.1//EN"
 "http://www.w3.org/Graphics/SVG/1.1/DTD/svg11.dtd">
<!-- Generated by graphviz version 2.38.0 (20140413.2041)
 -->
<!-- Title: G Pages: 1 -->
<svg width="386pt" height="258pt"
 viewBox="0.00 0.00 386.00 258.00" xmlns="http://www.w3.org/2000/svg" xmlns:xlink="http://www.w3.org/1999/xlink">
<g id="graph0" class="graph" transform="scale(1 1) rotate(0) translate(4 254)">
<title>G</title>
<polygon fill="none" stroke="none" points="-4,4 -4,-254 382,-254 382,4 -4,4"/>
<g id="clust1" class="cluster"><title>cluster</title>
<polygon fill="none" stroke="white" points="8,-8 8,-242 370,-242 370,-8 8,-8"/>
<text text-anchor="middle" x="189" y="-226.8" font-family="Lora" font-size="14.00" fill="white">Pod</text>
</g>
<g id="clust3" class="cluster"><title>cluster_labels</title>
</g>
<!-- c1 -->
<g id="node1" class="node"><title>c1</title>
<polygon fill="none" stroke="white" points="142,-204 88,-204 88,-168 142,-168 142,-204"/>
<text text-anchor="middle" x="115" y="-181.8" font-family="Lora" font-size="14.00" fill="white">C</text>
</g>
<!-- v1 -->
<g id="node4" class="node"><title>v1</title>
<ellipse fill="none" stroke="white" cx="169" cy="-114" rx="27" ry="18"/>
<text text-anchor="middle" x="169" y="-109.8" font-family="Lora" font-size="14.00" fill="white">V</text>
</g>
<!-- c1&#45;&gt;v1 -->
<g id="edge1" class="edge"><title>c1&#45;&gt;v1</title>
<path fill="none" stroke="white" d="M128.348,-167.697C135.112,-158.929 143.427,-148.15 150.771,-138.631"/>
<polygon fill="white" stroke="white" points="153.574,-140.727 156.911,-130.671 148.031,-136.451 153.574,-140.727"/>
</g>
<!-- v2 -->
<g id="node5" class="node"><title>v2</title>
<ellipse fill="none" stroke="white" cx="61" cy="-114" rx="27" ry="18"/>
<text text-anchor="middle" x="61" y="-109.8" font-family="Lora" font-size="14.00" fill="white">V</text>
</g>
<!-- c1&#45;&gt;v2 -->
<g id="edge2" class="edge"><title>c1&#45;&gt;v2</title>
<path fill="none" stroke="white" d="M101.652,-167.697C94.8879,-158.929 86.5731,-148.15 79.2294,-138.631"/>
<polygon fill="white" stroke="white" points="81.9686,-136.451 73.0892,-130.671 76.4261,-140.727 81.9686,-136.451"/>
</g>
<!-- c2 -->
<g id="node2" class="node"><title>c2</title>
<polygon fill="none" stroke="white" points="214,-204 160,-204 160,-168 214,-168 214,-204"/>
<text text-anchor="middle" x="187" y="-181.8" font-family="Lora" font-size="14.00" fill="white">C</text>
</g>
<!-- c2&#45;&gt;v1 -->
<g id="edge3" class="edge"><title>c2&#45;&gt;v1</title>
<path fill="none" stroke="white" d="M182.551,-167.697C180.545,-159.898 178.131,-150.509 175.899,-141.829"/>
<polygon fill="white" stroke="white" points="179.278,-140.918 173.398,-132.104 172.499,-142.661 179.278,-140.918"/>
</g>
<!-- c3 -->
<g id="node3" class="node"><title>c3</title>
<polygon fill="none" stroke="white" points="70,-204 16,-204 16,-168 70,-168 70,-204"/>
<text text-anchor="middle" x="43" y="-181.8" font-family="Lora" font-size="14.00" fill="white">C</text>
</g>
<!-- c3&#45;&gt;v2 -->
<g id="edge4" class="edge"><title>c3&#45;&gt;v2</title>
<path fill="none" stroke="white" d="M47.4494,-167.697C49.4548,-159.898 51.8692,-150.509 54.1011,-141.829"/>
<polygon fill="white" stroke="white" points="57.501,-142.661 56.6017,-132.104 50.7215,-140.918 57.501,-142.661"/>
</g>
<!-- l1 -->
<g id="node6" class="node"><title>l1</title>
<polygon fill="none" stroke="white" points="328.049,-198 243.951,-198 243.951,-174 328.049,-174 340.049,-186 328.049,-198"/>
<text text-anchor="middle" x="292" y="-181.8" font-family="Lora" font-size="14.00" fill="white">version = 1.0</text>
</g>
<!-- l2 -->
<g id="node7" class="node"><title>l2</title>
<polygon fill="none" stroke="white" points="327.19,-126 244.81,-126 244.81,-102 327.19,-102 339.19,-114 327.19,-126"/>
<text text-anchor="middle" x="292" y="-109.8" font-family="Lora" font-size="14.00" fill="white">service = FE</text>
</g>
<!-- l1&#45;&gt;l2 -->
<!-- l3 -->
<g id="node8" class="node"><title>l3</title>
<polygon fill="none" stroke="white" points="341.53,-54 230.47,-54 230.47,-30 341.53,-30 353.53,-42 341.53,-54"/>
<text text-anchor="middle" x="292" y="-37.8" font-family="Lora" font-size="14.00" fill="white">app = HelloWorld</text>
</g>
<!-- l2&#45;&gt;l3 -->
</g>
</svg>
