<?xml version="1.0" encoding="UTF-8" standalone="no"?>
<?xml-stylesheet href="graphviz.css" type="text/css"?>
<!DOCTYPE svg PUBLIC "-//W3C//DTD SVG 1.1//EN"
 "http://www.w3.org/Graphics/SVG/1.1/DTD/svg11.dtd">
<!-- Generated by graphviz version 2.38.0 (20140413.2041)
 -->
<!-- Title: G Pages: 1 -->
<svg width="341pt" height="170pt"
 viewBox="0.00 0.00 341.00 170.00" xmlns="http://www.w3.org/2000/svg" xmlns:xlink="http://www.w3.org/1999/xlink">
<g id="graph0" class="graph" transform="scale(1 1) rotate(0) translate(4 166)">
<title>G</title>
<polygon fill="none" stroke="none" points="-4,4 -4,-166 337,-166 337,4 -4,4"/>
<g id="clust1" class="cluster"><title>cluster</title>
<polygon fill="none" stroke="white" points="8,-8 8,-154 325,-154 325,-8 8,-8"/>
<text text-anchor="middle" x="166.5" y="-138.8" font-family="Lora" font-size="14.00" fill="white">Pod</text>
</g>
<!-- c1 -->
<g id="node1" class="node"><title>c1</title>
<polygon fill="none" stroke="white" points="205.504,-124 114.496,-124 114.496,-88 205.504,-88 205.504,-124"/>
<text text-anchor="start" x="122.249" y="-101.8" font-family="Lora" font-size="14.00" fill="white">Serving App</text>
</g>
<!-- v1 -->
<g id="node4" class="node"><title>v1</title>
<ellipse fill="none" stroke="white" cx="215" cy="-34" rx="46.9581" ry="18"/>
<text text-anchor="start" x="185.814" y="-29.8" font-family="Lora" font-size="14.00" fill="white">App Data</text>
</g>
<!-- c1&#45;&gt;v1 -->
<g id="edge1" class="edge"><title>c1&#45;&gt;v1</title>
<path fill="none" stroke="white" d="M173.596,-87.6966C180.22,-79.2653 188.306,-68.9748 195.567,-59.7323"/>
<polygon fill="white" stroke="white" points="198.513,-61.6479 201.94,-51.6223 193.009,-57.3231 198.513,-61.6479"/>
</g>
<!-- v2 -->
<g id="node5" class="node"><title>v2</title>
<ellipse fill="none" stroke="white" cx="88" cy="-34" rx="29.0686" ry="18"/>
<text text-anchor="start" x="72.8208" y="-29.8" font-family="Lora" font-size="14.00" fill="white">Logs</text>
</g>
<!-- c1&#45;&gt;v2 -->
<g id="edge2" class="edge"><title>c1&#45;&gt;v2</title>
<path fill="none" stroke="white" d="M142.202,-87.6966C132.645,-78.405 120.765,-66.8553 110.566,-56.9388"/>
<polygon fill="white" stroke="white" points="112.769,-54.1996 103.159,-49.7383 107.89,-59.2186 112.769,-54.1996"/>
</g>
<!-- c2 -->
<g id="node2" class="node"><title>c2</title>
<polygon fill="none" stroke="white" points="316.555,-124 223.445,-124 223.445,-88 316.555,-88 316.555,-124"/>
<text text-anchor="start" x="231.473" y="-101.8" font-family="Lora" font-size="14.00" fill="white">Data Loader</text>
</g>
<!-- c2&#45;&gt;v1 -->
<g id="edge3" class="edge"><title>c2&#45;&gt;v1</title>
<path fill="none" stroke="white" d="M256.404,-87.6966C249.78,-79.2653 241.694,-68.9748 234.433,-59.7323"/>
<polygon fill="white" stroke="white" points="236.991,-57.3231 228.06,-51.6223 231.487,-61.6479 236.991,-57.3231"/>
</g>
<!-- c3 -->
<g id="node3" class="node"><title>c3</title>
<polygon fill="none" stroke="white" points="95.8205,-124 16.1795,-124 16.1795,-88 95.8205,-88 95.8205,-124"/>
<text text-anchor="start" x="24.0898" y="-101.8" font-family="Lora" font-size="14.00" fill="white">Log Saver</text>
</g>
<!-- c3&#45;&gt;v2 -->
<g id="edge4" class="edge"><title>c3&#45;&gt;v2</title>
<path fill="none" stroke="white" d="M63.9101,-87.6966C67.6071,-79.6095 72.0861,-69.8117 76.1741,-60.8691"/>
<polygon fill="white" stroke="white" points="79.4267,-62.1722 80.4012,-51.6223 73.0604,-59.2619 79.4267,-62.1722"/>
</g>
</g>
</svg>
