<svg xmlns="http://www.w3.org/2000/svg" viewBox="0 0 887.97 426.16">
  <defs>
    <style>
      @import url("../fonts/fonts.css");
      .a, .c {
        fill: none;
        stroke: #f2f2f2;
        stroke-miterlimit: 10;
        stroke-width: 1.42px;
      }

      .b {
        font-size: 45.35px;
        font-family: Coda;
      }

      .b, .d {
        fill: #f2f2f2;
      }

      .c {
        stroke-dasharray: 2.83;
      }
    </style>
  </defs>
  <title>pvs</title>
  <rect class="a" x="0.71" y="0.71" width="389.79" height="424.75"/>
  <text class="b" transform="translate(155.83 64.16)">P<tspan x="27.46" y="0">od</tspan></text>
  <g>
    <g>
      <g>
        <text class="b" transform="translate(280.41 147.94)">C</text>
        <text class="b" transform="translate(309.71 163.05) scale(0.58)">3</text>
        <rect class="a" x="267.86" y="99.29" width="68.92" height="68.92"/>
      </g>
      <g>
        <text class="b" transform="translate(173.89 147.94)">C</text>
        <text class="b" transform="translate(203.19 163.05) scale(0.58)">2</text>
        <rect class="a" x="161.15" y="99.29" width="68.92" height="68.92"/>
      </g>
      <g>
        <text class="b" transform="translate(70.48 147.94)">C</text>
        <text class="b" transform="translate(99.77 163.05) scale(0.58)">1</text>
        <rect class="a" x="54.43" y="99.29" width="68.92" height="68.92"/>
      </g>
    </g>
    <g>
      <g>
        <g>
          <ellipse class="a" cx="124.48" cy="295.56" rx="50" ry="23.65"/>
          <path class="a" d="M190.83,549.37c0,13.06-22.39,23.65-50,23.65s-50-10.59-50-23.65" transform="translate(-16.35 -172.08)"/>
          <line class="a" x1="74.48" y1="377.28" x2="74.48" y2="295.56"/>
          <line class="a" x1="174.48" y1="377.28" x2="174.48" y2="295.56"/>
        </g>
        <text class="b" transform="translate(110.89 377.28)">V</text>
      </g>
      <g>
        <text class="b" transform="translate(239.14 377.28)">PV</text>
        <g>
          <ellipse class="c" cx="266.73" cy="295.56" rx="50" ry="23.65"/>
          <path class="c" d="M333.09,549.37c0,13.06-22.39,23.65-50,23.65s-50-10.59-50-23.65" transform="translate(-16.35 -172.08)"/>
          <line class="c" x1="216.73" y1="377.28" x2="216.73" y2="295.56"/>
          <line class="c" x1="316.73" y1="377.28" x2="316.73" y2="295.56"/>
        </g>
      </g>
    </g>
    <g>
      <line class="a" x1="88.89" y1="168.21" x2="101.67" y2="249.09"/>
      <path class="d" d="M117.23,416.15l9.12-7.73,0.28,0.31-3.94,17.48q-0.53,8.9-1.07,17.79l-6.5-16.6L106,412l0.12-.37Z" transform="translate(-16.35 -172.08)"/>
    </g>
    <g>
      <line class="a" x1="195.61" y1="168.21" x2="160.38" y2="254.32"/>
      <path class="d" d="M178.66,421.69l11.8-1.88,0.08,0.41-12.43,12.91L168,447.79l3-17.56,0.18-17.92,0.29-.26Z" transform="translate(-16.35 -172.08)"/>
    </g>
    <g>
      <line class="a" x1="195.61" y1="168.21" x2="232.89" y2="253.79"/>
      <path class="d" d="M247.22,421.21l6.88-9.77,0.35,0.23L255,429.58l3.44,17.49L248,432.64,235.3,420l0-.39Z" transform="translate(-16.35 -172.08)"/>
    </g>
    <g>
      <line class="a" x1="302.32" y1="168.21" x2="291.55" y2="251.37"/>
      <path class="d" d="M308.56,418.41l10.93-4.85,0.18,0.38L311,429.6l-6,16.77q-0.78-8.88-1.56-17.75L299,411.26l0.22-.32Z" transform="translate(-16.35 -172.08)"/>
    </g>
  </g>
  <rect class="a" x="462.51" y="1.06" width="424.75" height="133.04"/>
  <text class="b" transform="translate(489.78 52.31)">P<tspan x="27.46" y="0">ersistent </tspan><tspan x="216.25" y="0">V</tspan><tspan x="242.89" y="0">olume</tspan><tspan x="127.16" y="54.43">Claim</tspan></text>
  <g>
    <ellipse class="a" cx="674.88" cy="254.77" rx="212.37" ry="32.81"/>
    <path class="a" d="M903.61,540.21c0,18.12-95.08,32.81-212.37,32.81s-212.37-14.69-212.37-32.81" transform="translate(-16.35 -172.08)"/>
    <line class="a" x1="462.51" y1="368.13" x2="462.51" y2="254.77"/>
    <line class="a" x1="887.26" y1="368.13" x2="887.26" y2="254.77"/>
  </g>
  <text class="b" transform="translate(489.78 350.76)">P<tspan x="27.46" y="0">ersistent </tspan><tspan x="216.25" y="0">V</tspan><tspan x="242.89" y="0">olume</tspan></text>
  <g>
    <line class="a" x1="316.73" y1="339.92" x2="451.6" y2="87.96"/>
    <path class="d" d="M465.56,264.53l-11.94.66,0-.42,13.69-11.56,11.59-13.54L474,256.82l-2,17.8-0.32.23Z" transform="translate(-16.35 -172.08)"/>
  </g>
  <g>
    <line class="a" x1="674.88" y1="134.11" x2="674.88" y2="198.85"/>
    <path class="d" d="M691.24,365.85l10.21-6.21,0.23,0.35-6.61,16.65L691.24,394l-3.83-17.41L680.79,360l0.17-.35Z" transform="translate(-16.35 -172.08)"/>
  </g>
</svg>
