<svg xmlns="http://www.w3.org/2000/svg" viewBox="0 0 684.14 462.53">
  <defs>
    <style>
      .a, .e, .f, .g {
        fill: none;
        stroke: #f2f2f2;
        stroke-miterlimit: 10;
        stroke-width: 1.42px;
      }

      .b {
        font-size: 22.68px;
      }

      .b, .c, .d {
        fill: #f2f2f2;
      }

      .b, .d {
        font-family: Coda;
      }

      .d {
        font-size: 14.17px;
      }

      .e {
        stroke-dasharray: 2.77 2.77;
      }

      .f {
        stroke-dasharray: 2.83 2.83;
      }

      .g {
        stroke-dasharray: 2.68 2.68;
      }
    </style>
  </defs>
  <title>rc</title>
  <g>
    <g>
      <rect class="a" x="385.44" y="0.71" width="297.97" height="212.37"/>
      <text class="b" transform="translate(514.54 32.43)">P<tspan x="13.73" y="0">od</tspan></text>
      <g>
        <g>
          <g>
            <g>
              <text class="b" transform="translate(526.92 74.33)">C</text>
              <text class="b" transform="translate(541.57 81.88) scale(0.58)">3</text>
            </g>
            <rect class="a" x="520.64" y="50" width="34.46" height="34.46"/>
          </g>
          <g>
            <g>
              <text class="b" transform="translate(473.66 74.33)">C</text>
              <text class="b" transform="translate(488.31 81.88) scale(0.58)">2</text>
            </g>
            <rect class="a" x="467.29" y="50" width="34.46" height="34.46"/>
          </g>
          <g>
            <g>
              <text class="b" transform="translate(421.95 74.33)">C</text>
              <text class="b" transform="translate(436.6 81.88) scale(0.58)">1</text>
            </g>
            <rect class="a" x="413.93" y="50" width="34.46" height="34.46"/>
          </g>
        </g>
        <g>
          <g>
            <g>
              <ellipse class="a" cx="448.96" cy="148.14" rx="25" ry="11.82"/>
              <path class="a" d="M632,457.93c0,6.53-11.19,11.82-25,11.82s-25-5.29-25-11.82" transform="translate(-158.08 -268.93)"/>
              <line class="a" x1="423.96" y1="189" x2="423.96" y2="148.14"/>
              <line class="a" x1="473.96" y1="189" x2="473.96" y2="148.14"/>
            </g>
            <g>
              <text class="b" transform="translate(440.63 184.94)">V</text>
              <text class="b" transform="translate(454.22 192.49) scale(0.58)">1</text>
            </g>
          </g>
          <g>
            <g>
              <text class="b" transform="translate(509.75 184.94)">V</text>
              <text class="b" transform="translate(523.34 192.49) scale(0.58)">2</text>
            </g>
            <g>
              <ellipse class="a" cx="520.08" cy="148.14" rx="25" ry="11.82"/>
              <path class="a" d="M703.17,457.93c0,6.53-11.19,11.82-25,11.82s-25-5.29-25-11.82" transform="translate(-158.08 -268.93)"/>
              <line class="a" x1="495.08" y1="189" x2="495.08" y2="148.14"/>
              <line class="a" x1="545.08" y1="189" x2="545.08" y2="148.14"/>
            </g>
          </g>
        </g>
        <g>
          <line class="a" x1="431.16" y1="84.46" x2="437.55" y2="124.9"/>
          <path class="c" d="M595.24,391.32l4.56-3.86,0.14,0.15-2,8.74-0.53,8.9-3.25-8.3-4.57-7.71,0.06-.19Z" transform="translate(-158.08 -268.93)"/>
        </g>
        <g>
          <line class="a" x1="484.52" y1="84.46" x2="466.9" y2="127.51"/>
          <path class="c" d="M626,394.09l5.9-.94,0,0.21-6.21,6.45-5.07,7.33,1.52-8.78,0.09-9,0.15-.13Z" transform="translate(-158.08 -268.93)"/>
        </g>
        <g>
          <line class="a" x1="484.52" y1="84.46" x2="503.16" y2="127.25"/>
          <path class="c" d="M660.23,393.85l3.44-4.89,0.18,0.11,0.29,9,1.72,8.74-5.23-7.21-6.36-6.31v-0.19Z" transform="translate(-158.08 -268.93)"/>
        </g>
        <g>
          <line class="a" x1="537.87" y1="84.46" x2="532.49" y2="126.04"/>
          <path class="c" d="M690.9,392.45l5.46-2.42,0.09,0.19L692.11,398l-3,8.39-0.78-8.88-2.21-8.68,0.11-.16Z" transform="translate(-158.08 -268.93)"/>
        </g>
      </g>
      <g>
        <g>
          <text class="d" transform="translate(580.08 127.04)">v<tspan x="6.93" y="0">ersion = 1.0</tspan></text>
          <path class="a" d="M823.09,404.21h-91V380.27h91c0.68,0.41,11,12,11,12S823.87,403.75,823.09,404.21Z" transform="translate(-158.08 -268.93)"/>
        </g>
        <g>
          <text class="d" transform="translate(580.08 158.48)">type = FE</text>
          <path class="a" d="M823.09,435.65h-91V411.71h91c0.68,0.41,11,12,11,12S823.87,435.19,823.09,435.65Z" transform="translate(-158.08 -268.93)"/>
        </g>
        <g>
          <text class="d" transform="translate(580.08 189.92)">app = hello</text>
          <path class="a" d="M823.09,467.09h-91V443.15h91c0.68,0.41,11,12,11,12S823.87,466.63,823.09,467.09Z" transform="translate(-158.08 -268.93)"/>
        </g>
      </g>
    </g>
    <g>
      <rect class="a" x="385.46" y="249.45" width="297.97" height="212.37"/>
      <text class="b" transform="translate(514.56 281.17)">P<tspan x="13.73" y="0">od</tspan></text>
      <g>
        <g>
          <g>
            <g>
              <text class="b" transform="translate(526.94 323.06)">C</text>
              <text class="b" transform="translate(541.59 330.61) scale(0.58)">3</text>
            </g>
            <rect class="a" x="520.66" y="298.74" width="34.46" height="34.46"/>
          </g>
          <g>
            <g>
              <text class="b" transform="translate(473.67 323.06)">C</text>
              <text class="b" transform="translate(488.32 330.61) scale(0.58)">2</text>
            </g>
            <rect class="a" x="467.3" y="298.74" width="34.46" height="34.46"/>
          </g>
          <g>
            <g>
              <text class="b" transform="translate(421.97 323.06)">C</text>
              <text class="b" transform="translate(436.62 330.61) scale(0.58)">1</text>
            </g>
            <rect class="a" x="413.95" y="298.74" width="34.46" height="34.46"/>
          </g>
        </g>
        <g>
          <g>
            <g>
              <ellipse class="a" cx="448.97" cy="396.87" rx="25" ry="11.82"/>
              <path class="a" d="M632.05,706.67c0,6.53-11.19,11.82-25,11.82s-25-5.29-25-11.82" transform="translate(-158.08 -268.93)"/>
              <line class="a" x1="423.97" y1="437.73" x2="423.97" y2="396.87"/>
              <line class="a" x1="473.97" y1="437.73" x2="473.97" y2="396.87"/>
            </g>
            <g>
              <text class="b" transform="translate(440.65 433.68)">V</text>
              <text class="b" transform="translate(454.23 441.23) scale(0.58)">1</text>
            </g>
          </g>
          <g>
            <g>
              <text class="b" transform="translate(509.77 433.68)">V</text>
              <text class="b" transform="translate(523.35 441.23) scale(0.58)">2</text>
            </g>
            <g>
              <ellipse class="a" cx="520.1" cy="396.87" rx="25" ry="11.82"/>
              <path class="a" d="M703.18,706.67c0,6.53-11.19,11.82-25,11.82s-25-5.29-25-11.82" transform="translate(-158.08 -268.93)"/>
              <line class="a" x1="495.1" y1="437.73" x2="495.1" y2="396.87"/>
              <line class="a" x1="545.1" y1="437.73" x2="545.1" y2="396.87"/>
            </g>
          </g>
        </g>
        <g>
          <line class="a" x1="431.18" y1="333.2" x2="437.56" y2="373.64"/>
          <path class="c" d="M595.25,640.06l4.56-3.86,0.14,0.15-2,8.74-0.53,8.9-3.25-8.3L589.64,638l0.06-.19Z" transform="translate(-158.08 -268.93)"/>
        </g>
        <g>
          <line class="a" x1="484.53" y1="333.2" x2="466.92" y2="376.25"/>
          <path class="c" d="M626,642.83l5.9-.94,0,0.21-6.21,6.45-5.07,7.33,1.52-8.78,0.09-9,0.15-.13Z" transform="translate(-158.08 -268.93)"/>
        </g>
        <g>
          <line class="a" x1="484.53" y1="333.2" x2="503.18" y2="375.99"/>
          <path class="c" d="M660.25,642.59l3.44-4.89,0.18,0.11,0.29,9,1.72,8.74-5.23-7.21L654.29,642v-0.19Z" transform="translate(-158.08 -268.93)"/>
        </g>
        <g>
          <line class="a" x1="537.89" y1="333.2" x2="532.51" y2="374.78"/>
          <path class="c" d="M690.92,641.19l5.46-2.42,0.09,0.19-4.35,7.83-3,8.39-0.78-8.88-2.21-8.68,0.11-.16Z" transform="translate(-158.08 -268.93)"/>
        </g>
      </g>
      <g>
        <g>
          <text class="d" transform="translate(580.09 375.78)">v<tspan x="6.93" y="0">ersion = 1.0</tspan></text>
          <path class="a" d="M823.11,653h-91V629h91c0.68,0.41,11,12,11,12S823.88,652.48,823.11,653Z" transform="translate(-158.08 -268.93)"/>
        </g>
        <g>
          <text class="d" transform="translate(580.09 407.22)">type = FE</text>
          <path class="a" d="M823.11,684.39h-91V660.45h91c0.68,0.41,11,12,11,12S823.88,683.92,823.11,684.39Z" transform="translate(-158.08 -268.93)"/>
        </g>
        <g>
          <text class="d" transform="translate(580.09 438.66)">app = hello</text>
          <path class="a" d="M823.11,715.83h-91V691.89h91c0.68,0.41,11,12,11,12S823.88,715.36,823.11,715.83Z" transform="translate(-158.08 -268.93)"/>
        </g>
      </g>
    </g>
  </g>
  <g>
    <rect class="a" x="0.71" y="85.56" width="291.4" height="291.4"/>
    <text class="b" transform="translate(34.16 121.14)">ReplicationCont<tspan x="163.71" y="0">r</tspan><tspan x="171.45" y="0">oller</tspan></text>
    <text class="b" transform="translate(34.16 167.66)">Replicas: 2<tspan x="0" y="27.21">Selector: type=FE</tspan></text>
    <g>
      <text class="d" transform="translate(184.19 340.68)">P<tspan x="8.58" y="0">od Tmpl</tspan></text>
      <g>
        <path class="a" d="M419,620.86H323.8V500.2h60.9L419,533.56S419,583.41,419,620.86Z" transform="translate(-158.08 -268.93)"/>
        <polyline class="a" points="260.96 265.12 226.03 265.12 226.03 231.26"/>
      </g>
    </g>
    <g>
      <path class="c" d="M237.23,609.8a38.24,38.24,0,0,1-18-73.95l5.34,15.28a22,22,0,1,0,28.08,13.53,20.32,20.32,0,0,0-7.43-9.84l9.52-13.09a36.71,36.71,0,0,1,13.19,17.59A38.23,38.23,0,0,1,244.48,608,38.65,38.65,0,0,1,237.23,609.8Z" transform="translate(-158.08 -268.93)"/>
      <polygon class="c" points="88.51 297.81 71.36 270.47 103.62 269.28 88.51 297.81"/>
    </g>
  </g>
  <g>
    <g>
      <line class="a" x1="292.11" y1="231.26" x2="293.53" y2="231.26"/>
      <line class="e" x1="296.3" y1="231.26" x2="322.64" y2="231.26"/>
      <line class="a" x1="324.03" y1="231.26" x2="325.44" y2="231.26"/>
    </g>
    <g>
      <line class="a" x1="325.44" y1="106.9" x2="325.44" y2="108.31"/>
      <line class="f" x1="325.44" y1="111.14" x2="325.44" y2="352.8"/>
      <line class="a" x1="325.44" y1="354.22" x2="325.44" y2="355.63"/>
    </g>
    <g>
      <line class="a" x1="325.44" y1="355.63" x2="326.86" y2="355.63"/>
      <line class="g" x1="329.54" y1="355.63" x2="371.13" y2="355.63"/>
      <line class="a" x1="372.47" y1="355.63" x2="373.89" y2="355.63"/>
      <path class="c" d="M529.43,624.57l-3.11-5.11,0.17-.12,8.33,3.31,8.7,1.91-8.7,1.91-8.33,3.31-0.17-.09Z" transform="translate(-158.08 -268.93)"/>
    </g>
    <g>
      <line class="a" x1="325.44" y1="106.9" x2="326.86" y2="106.9"/>
      <line class="g" x1="329.54" y1="106.9" x2="371.13" y2="106.9"/>
      <line class="a" x1="372.47" y1="106.9" x2="373.89" y2="106.9"/>
      <path class="c" d="M529.43,375.83l-3.11-5.11,0.17-.12,8.33,3.31,8.7,1.91-8.7,1.91-8.33,3.31-0.17-.09Z" transform="translate(-158.08 -268.93)"/>
    </g>
  </g>
</svg>
